<svg xmlns="http://www.w3.org/2000/svg" version="1.1" xmlns:xlink="http://www.w3.org/1999/xlink" xmlns:svgjs="http://svgjs.dev/svgjs" width="1500" height="939" viewBox="0 0 1500 939"><g transform="matrix(1,0,0,1,-0.9090909090909918,-1.5145161290323017)"><svg viewBox="0 0 396 248" data-background-color="#ffffff" preserveAspectRatio="xMidYMid meet" height="939" width="1500" xmlns="http://www.w3.org/2000/svg" xmlns:xlink="http://www.w3.org/1999/xlink"><g id="tight-bounds" transform="matrix(1,0,0,1,0.2400000000000091,0.4000000000000057)"><svg viewBox="0 0 395.52 247.2" height="247.2" width="395.52"><g><svg></svg></g><g><svg viewBox="0 0 395.52 247.2" height="247.2" width="395.52"><g transform="matrix(1,0,0,1,42.87851851851849,37.08)"><svg viewBox="0 0 309.762962962963 173.04" height="173.04" width="309.762962962963"><g><svg viewBox="0 0 309.762962962963 173.04" height="173.04" width="309.762962962963"><g><svg viewBox="0 0 309.762962962963 173.04" height="173.04" width="309.762962962963"><g><svg viewBox="0 0 309.762962962963 173.04" height="173.04" width="309.762962962963"><g id="textblocktransform"><svg viewBox="0 0 309.762962962963 173.04" height="173.04" width="309.762962962963" id="textblock"><g><svg viewBox="0 0 309.762962962963 173.04" height="173.04" width="309.762962962963"><g transform="matrix(1,0,0,1,0,0)"><svg width="309.762962962963" viewBox="2.75 -32.4 58 32.4" height="173.04" data-palette-color="#000000"><path d="M15.35 0L2.75 0 2.75-2.15 6.9-3 6.9-29.4 2.75-30.25 2.75-32.4 16.85-32.4Q19.6-32.4 21.88-31.55 24.15-30.7 25.53-28.95 26.9-27.2 26.9-24.4L26.9-24.4Q26.9-22.05 26.3-20.43 25.7-18.8 24.68-17.73 23.65-16.65 22.4-15.9 21.15-15.15 19.75-14.55L19.75-14.55 26.7-3.1 30.2-2.15 30.2 0 25.6 0Q24.45 0 23.88-0.35 23.3-0.7 22.75-1.55L22.75-1.55 15.8-13.65 11.2-13.65 11.2-3 15.35-2.15 15.35 0ZM11.2-29.3L11.2-16.4 14.35-16.4Q16.7-16.4 18.45-17.3 20.2-18.2 21.2-19.8 22.2-21.4 22.2-23.5L22.2-23.5Q22.2-25.55 21.53-26.78 20.85-28 19.8-28.6 18.75-29.2 17.55-29.38 16.35-29.55 15.25-29.55L15.25-29.55Q14.35-29.55 13.23-29.48 12.1-29.4 11.2-29.3L11.2-29.3ZM45.9 0L33.3 0 33.3-2.15 37.45-3 37.45-29.4 33.3-30.25 33.3-32.4 47.4-32.4Q50.15-32.4 52.42-31.55 54.7-30.7 56.07-28.95 57.45-27.2 57.45-24.4L57.45-24.4Q57.45-22.05 56.85-20.43 56.25-18.8 55.22-17.73 54.2-16.65 52.95-15.9 51.7-15.15 50.3-14.55L50.3-14.55 57.25-3.1 60.75-2.15 60.75 0 56.15 0Q55 0 54.42-0.35 53.85-0.7 53.3-1.55L53.3-1.55 46.35-13.65 41.75-13.65 41.75-3 45.9-2.15 45.9 0ZM41.75-29.3L41.75-16.4 44.9-16.4Q47.25-16.4 49-17.3 50.75-18.2 51.75-19.8 52.75-21.4 52.75-23.5L52.75-23.5Q52.75-25.55 52.07-26.78 51.4-28 50.35-28.6 49.3-29.2 48.1-29.38 46.9-29.55 45.8-29.55L45.8-29.55Q44.9-29.55 43.77-29.48 42.65-29.4 41.75-29.3L41.75-29.3Z" opacity="1" transform="matrix(1,0,0,1,0,0)" fill="#000000" class="wordmark-text-0" data-fill-palette-color="primary" id="text-0"></path></svg></g></svg></g></svg></g></svg></g></svg></g></svg></g></svg></g><g><path d="M0 247.2v-247.2h395.52v247.2zM379.915 231.595v-215.99h-364.31v215.99z" fill="#000000" fill-rule="nonzero" stroke="none" stroke-width="1" stroke-linecap="butt" stroke-linejoin="miter" stroke-miterlimit="10" stroke-dasharray="" stroke-dashoffset="0" font-family="none" font-weight="none" font-size="none" text-anchor="none" style="mix-blend-mode: normal" data-fill-palette-color="tertiary"></path></g></svg></g><defs></defs></svg><rect width="395.52" height="247.2" fill="none" stroke="none" visibility="hidden"></rect></g></svg></g></svg>